<?xml version="1.0" standalone="no"?>
<!DOCTYPE svg PUBLIC "-//W3C//DTD SVG 20010904//EN"
 "http://www.w3.org/TR/2001/REC-SVG-20010904/DTD/svg10.dtd">
<svg version="1.0" xmlns="http://www.w3.org/2000/svg"
 width="100.000000pt" height="100.000000pt" viewBox="0 0 100.000000 100.000000"
 preserveAspectRatio="xMidYMid meet">
<metadata>
Created by potrace 1.11, written by Peter Selinger 2001-2013
</metadata>
<g transform="translate(0.000000,100.000000) scale(0.100000,-0.100000)"
fill="#000000" stroke="none">
<path d="M357 943 c-13 -12 -7 -50 16 -94 l22 -44 -81 0 c-72 0 -86 -3 -130
-30 -58 -36 -110 -115 -120 -184 -9 -56 14 -153 50 -209 20 -32 351 -341 375
-350 11 -4 340 293 371 335 87 119 76 295 -23 379 -80 68 -194 84 -280 41
l-46 -24 15 36 c8 20 21 39 29 44 8 4 15 14 15 21 0 20 -27 27 -40 11 -10 -11
-17 -8 -42 20 -34 40 -112 68 -131 48z m94 -72 c16 -16 29 -34 29 -40 0 -32
-79 24 -80 57 0 20 20 14 51 -17z m-58 -114 c18 -8 47 -26 65 -41 l32 -28 30
25 c174 147 411 -13 347 -234 -21 -70 -45 -97 -225 -262 l-150 -136 -163 148
c-92 83 -174 166 -186 188 -72 129 -38 269 80 328 57 28 120 32 170 12z"/>
<path d="M650 700 c0 -14 7 -20 23 -20 51 0 117 -66 117 -118 0 -11 7 -23 15
-26 38 -14 29 76 -12 124 -32 38 -73 60 -113 60 -23 0 -30 -4 -30 -20z"/>
</g>
</svg>
